<?xml version="1.0" encoding="iso-8859-1"?>
<!-- Generator: Adobe Illustrator 19.0.0, SVG Export Plug-In . SVG Version: 6.00 Build 0)  -->
<svg version="1.1" id="Layer_1" xmlns="http://www.w3.org/2000/svg" xmlns:xlink="http://www.w3.org/1999/xlink" x="0px" y="0px"
	 viewBox="0 0 512 512" style="enable-background:new 0 0 512 512;" xml:space="preserve">
<path style="fill:#5A6B96;" d="M500.989,340.209v13.29c0,20.612-16.714,37.326-37.326,37.326H48.337
	c-20.612,0-37.326-16.714-37.326-37.326v-13.29H500.989z"/>
<path style="fill:#EFEFEF;" d="M500.989,59.402v280.807H11.011V59.402c0-20.612,16.714-37.326,37.326-37.326h415.326
	C484.275,22.075,500.989,38.79,500.989,59.402z"/>
<path style="fill:#264087;" d="M333.075,489.925c-51.384,0-102.767,0-154.151,0c12.022-32.827,17.426-66.269,17.734-99.097
	c39.561,0,79.121,0,118.683,0C315.65,423.655,321.054,457.097,333.075,489.925z"/>
<rect x="290.089" y="313.068" transform="matrix(0.7071 0.7071 -0.7071 0.7071 352.8557 -176.1853)" style="fill:#FFFFFF;" width="198.026" height="49.548"/>
<path style="fill:#FF7D46;" d="M244.648,229.941h-4.994c-13.682,0-24.774-11.092-24.774-24.774v-23.175
	c0-13.682,11.092-24.774,24.774-24.774h4.994c13.682,0,24.774,11.092,24.774,24.774v23.175
	C269.422,218.849,258.33,229.941,244.648,229.941z"/>
<g>
	<path style="fill:#231F20;" d="M463.663,11.065H48.337C21.683,11.065,0,32.748,0,59.402v294.097
		c0,26.654,21.683,48.337,48.337,48.337H185.33c-1.233,26.665-6.005,52.512-14.227,77.077h-35.67
		c-6.081,0-11.011,4.93-11.011,11.011c0,6.081,4.93,11.011,11.011,11.011h241.135c6.081,0,11.011-4.93,11.011-11.011
		c0-6.081-4.93-11.011-11.011-11.011h-35.67c-8.222-24.565-12.994-50.414-14.227-77.077h75.826l31.315,31.315
		c2.15,2.15,4.968,3.225,7.786,3.225c2.818,0,5.636-1.075,7.786-3.225l35.036-35.036c0.519-0.519,0.97-1.077,1.364-1.664
		C501.338,388.414,512,372.183,512,353.499V59.402C512,32.748,490.317,11.065,463.663,11.065z M194.243,478.914
		c7.593-24.706,11.997-50.532,13.141-77.075h97.233c1.143,26.544,5.548,52.369,13.141,77.075H194.243z M22.022,59.402
		c0-14.511,11.805-26.316,26.316-26.316h415.326c14.511,0,26.316,11.805,26.316,26.316v269.796h-58.904l-81.76-81.76
		c9.116-17.222,13.955-36.516,13.955-56.556c0-32.352-12.598-62.767-35.474-85.643c-22.876-22.877-53.292-35.476-85.644-35.476
		s-62.767,12.599-85.643,35.474c-22.877,22.876-35.476,53.292-35.476,85.644s12.599,62.767,35.474,85.644
		c23.613,23.611,54.628,35.418,85.644,35.418c19.449,0,38.899-4.645,56.524-13.931l31.185,31.185H22.022V59.402z M172.079,260.956
		c-18.717-18.717-29.025-43.603-29.025-70.072s10.308-51.355,29.025-70.072s43.603-29.024,70.071-29.024
		s51.355,10.308,70.071,29.024l0,0c18.717,18.717,29.024,43.603,29.024,70.071c0,26.47-10.308,51.355-29.025,70.072
		C273.584,299.594,210.717,299.594,172.079,260.956z M48.337,379.815c-14.511,0-26.316-11.806-26.316-26.316v-2.279h329.858
		l28.595,28.595H48.337z M441.596,409.794l-124.09-124.091c3.559-2.832,6.997-5.884,10.288-9.175
		c3.277-3.277,6.334-6.712,9.183-10.282l124.085,124.083L441.596,409.794z M489.979,353.499c0,9.375-4.932,17.611-12.332,22.271
		l-24.551-24.551h36.883V353.499z"/>
	<path style="fill:#231F20;" d="M385.29,190.884c0,6.081,4.93,11.011,11.011,11.011c6.081,0,11.011-4.93,11.011-11.011
		c0-37.912-12.439-73.506-35.972-102.933c-3.797-4.749-10.726-5.521-15.476-1.722c-4.749,3.798-5.521,10.727-1.722,15.476
		C374.52,127.185,385.29,158.023,385.29,190.884z"/>
	<path style="fill:#231F20;" d="M326.568,75.245l0.906,0.669c1.976,1.474,4.284,2.185,6.575,2.185c3.357,0,6.674-1.53,8.835-4.429
		c3.636-4.874,2.632-11.773-2.244-15.41l-1.043-0.771c-4.903-3.597-11.793-2.541-15.392,2.363
		C320.608,64.756,321.666,71.647,326.568,75.245z"/>
	<path style="fill:#231F20;" d="M308.215,159.414c0-6.081-4.929-11.011-11.011-11.011c-6.081,0-11.011,4.93-11.011,11.011
		c0,5.036-3.228,9.322-7.719,10.928c-2.247-6.507-6.32-12.168-11.608-16.369l3.756-8.837c2.378-5.597-0.23-12.062-5.827-14.441
		c-5.595-2.379-12.061,0.23-14.439,5.827l-4.133,9.726c-0.523-0.023-1.047-0.04-1.576-0.04h-4.994c-0.624,0-1.245,0.017-1.862,0.048
		l-4.137-9.734c-2.378-5.596-8.845-8.204-14.439-5.827c-5.597,2.378-8.205,8.844-5.827,14.441l3.828,9.008
		c-5.183,4.183-9.173,9.78-11.391,16.198c-4.491-1.605-7.719-5.892-7.719-10.928c0-6.081-4.93-11.011-11.011-11.011
		c-6.081,0-11.011,4.93-11.011,11.011c0,16.55,12.018,30.337,27.782,33.116v9.903c-15.765,2.779-27.782,16.566-27.782,33.116
		c0,6.081,4.93,11.011,11.011,11.011c6.081,0,11.011-4.93,11.011-11.011c0-6.234,4.941-11.322,11.11-11.589
		c6.314,10.189,17.594,16.993,30.436,16.993h4.994c12.843,0,24.122-6.805,30.436-16.993c6.169,0.266,11.11,5.355,11.11,11.589
		c0,6.081,4.93,11.011,11.011,11.011c6.081,0,11.011-4.93,11.011-11.011c0-16.55-12.018-30.337-27.782-33.116v-9.903
		C296.197,189.749,308.215,175.963,308.215,159.414z M244.648,218.93h-4.994c-7.59,0-13.763-6.174-13.763-13.763v-23.174
		c0-7.59,6.174-13.763,13.763-13.763h4.994c7.589,0,13.763,6.174,13.763,13.763v23.174
		C258.41,212.755,252.237,218.93,244.648,218.93z"/>
</g>
<g>
</g>
<g>
</g>
<g>
</g>
<g>
</g>
<g>
</g>
<g>
</g>
<g>
</g>
<g>
</g>
<g>
</g>
<g>
</g>
<g>
</g>
<g>
</g>
<g>
</g>
<g>
</g>
<g>
</g>
</svg>
